<?xml version="1.0" encoding="UTF-8" standalone="no"?>
<!DOCTYPE svg PUBLIC "-//W3C//DTD SVG 1.1//EN" "http://www.w3.org/Graphics/SVG/1.1/DTD/svg11.dtd">
<svg width="100%" height="100%" viewBox="0 0 315 276" version="1.1" xmlns="http://www.w3.org/2000/svg" xmlns:xlink="http://www.w3.org/1999/xlink" xml:space="preserve" xmlns:serif="http://www.serif.com/" style="fill-rule:evenodd;clip-rule:evenodd;stroke-linejoin:round;stroke-miterlimit:2;">
    <g transform="matrix(1,0,0,1,-342.943635,-347.260293)">
        <g id="ah--big-" serif:id="ah (big)" transform="matrix(2.119072,0,0,2.119072,-1090.781566,-542.75012)">
            <path d="M721.609,523.887C717.628,527.271 713.796,529.66 710.113,531.053C706.431,532.447 702.479,533.144 698.259,533.144C691.292,533.144 685.937,531.442 682.195,528.038C678.453,524.634 676.582,520.284 676.582,514.989C676.582,511.884 677.288,509.047 678.702,506.479C680.115,503.912 681.966,501.851 684.255,500.299C686.544,498.746 689.122,497.571 691.989,496.775C694.099,496.218 697.284,495.68 701.544,495.163C710.223,494.128 716.613,492.894 720.713,491.46C720.753,489.987 720.773,489.052 720.773,488.654C720.773,484.274 719.758,481.189 717.727,479.397C714.98,476.969 710.9,475.754 705.485,475.754C700.429,475.754 696.697,476.64 694.288,478.412C691.879,480.184 690.098,483.319 688.943,487.817L678.433,486.384C679.388,481.885 680.961,478.253 683.151,475.486C685.34,472.719 688.505,470.589 692.646,469.096C696.786,467.603 701.584,466.856 707.038,466.856C712.452,466.856 716.851,467.493 720.236,468.767C723.62,470.041 726.108,471.644 727.7,473.575C729.293,475.506 730.408,477.944 731.045,480.89C731.403,482.722 731.582,486.026 731.582,490.803L731.582,505.136C731.582,515.129 731.811,521.449 732.269,524.096C732.727,526.744 733.632,529.282 734.986,531.71L723.759,531.71C722.644,529.481 721.928,526.873 721.609,523.887ZM720.713,499.881C716.812,501.473 710.959,502.827 703.156,503.941C698.737,504.578 695.612,505.295 693.78,506.091C691.949,506.888 690.536,508.052 689.54,509.585C688.545,511.118 688.047,512.82 688.047,514.691C688.047,517.557 689.132,519.946 691.302,521.857C693.472,523.768 696.647,524.723 700.827,524.723C704.968,524.723 708.65,523.818 711.875,522.006C715.1,520.195 717.469,517.716 718.981,514.571C720.136,512.143 720.713,508.56 720.713,503.822L720.713,499.881ZM748.243,531.71L748.243,444.163L758.993,444.163L758.993,475.575C764.009,469.763 770.339,466.856 777.983,466.856C782.681,466.856 786.762,467.782 790.225,469.633C793.689,471.485 796.167,474.042 797.66,477.307C799.153,480.572 799.9,485.309 799.9,491.52L799.9,531.71L789.15,531.71L789.15,491.52C789.15,486.145 787.986,482.234 785.657,479.785C783.328,477.337 780.033,476.113 775.773,476.113C772.589,476.113 769.593,476.939 766.786,478.591C763.979,480.243 761.979,482.483 760.784,485.309C759.59,488.136 758.993,492.038 758.993,497.014L758.993,531.71L748.243,531.71ZM824.813,420L824.813,550L814.813,550L814.813,420L824.813,420Z" style="fill:white;"/>
        </g>
    </g>
</svg>
