<?xml version="1.0" encoding="UTF-8" standalone="no"?>
<!DOCTYPE svg PUBLIC "-//W3C//DTD SVG 1.1//EN" "http://www.w3.org/Graphics/SVG/1.1/DTD/svg11.dtd">
<svg width="100%" height="100%" viewBox="0 0 951 456" version="1.1" xmlns="http://www.w3.org/2000/svg" xmlns:xlink="http://www.w3.org/1999/xlink" xml:space="preserve" xmlns:serif="http://www.serif.com/" style="fill-rule:evenodd;clip-rule:evenodd;stroke-linejoin:round;stroke-miterlimit:2;">
    <g transform="matrix(1,0,0,1,-24.5,-227.073602)">
        <g transform="matrix(1,0,0,1,2.352397,-27.585135)">
            <path d="M645.632,569.15C835.706,578.591 973.148,605.717 973.148,637.672C973.148,677.457 760.083,709.758 497.648,709.758C235.212,709.758 22.148,677.457 22.148,637.672C22.148,597.886 235.212,565.585 497.648,565.585C510.421,565.585 523.077,565.662 535.597,565.812L484.735,437.414L500.379,373.458L508.723,373.458C530.974,373.458 543.734,366.778 547.002,353.416C549.884,341.633 538.462,335.741 512.734,335.741L493.96,335.741L449.479,517.585L233.7,517.585L220.093,439.964L165.122,517.585L47,517.585L266.463,254.659L348.889,496.016L404.45,268.871L540.303,268.871C581.676,268.871 611.996,276.038 631.263,290.372C636.009,293.918 640.082,297.676 643.484,301.644L651.5,268.871L948.295,268.871L930.824,340.297L820.99,340.297L777.624,517.585L671.758,517.585L715.124,340.297L656.213,340.297C655.937,343.899 655.333,347.604 654.402,351.411C648.251,376.556 627.334,397.753 591.651,415.002L645.632,569.15ZM300.575,602.123L270.015,602.123L270.015,626.708L239.081,626.708L239.081,602.123L208.52,602.123L208.52,673.22L239.081,673.22L239.081,645.198L270.015,645.198L270.015,673.22L300.575,673.22L300.575,602.123ZM381.166,600.509C367.6,600.509 356.121,603.13 346.73,608.374C334.803,615.006 328.84,624.815 328.84,637.802C328.84,650.372 334.803,660.095 346.73,666.97C355.823,672.213 367.103,674.835 380.57,674.835C394.037,674.835 405.317,672.213 414.41,666.97C426.337,660.095 432.3,650.337 432.3,637.698C432.3,624.989 426.337,615.214 414.41,608.374C405.267,603.13 394.186,600.509 381.166,600.509ZM380.272,618.114C387.278,618.114 392.67,620.18 396.447,624.312C399.677,627.819 401.292,632.298 401.292,637.75C401.292,642.993 399.677,647.42 396.447,651.032C392.72,655.164 387.428,657.23 380.57,657.23C373.712,657.23 368.42,655.164 364.693,651.032C361.463,647.455 359.848,643.01 359.848,637.698C359.848,632.35 361.463,627.888 364.693,624.312C368.42,620.18 373.613,618.114 380.272,618.114ZM667.647,623.01C666.852,617.246 664.567,612.731 660.79,609.467C653.833,603.495 642.205,600.509 625.906,600.509C618.452,600.509 611.669,601.082 605.557,602.228C601.283,603.026 597.283,604.485 593.556,606.603C586.649,610.492 583.195,615.787 583.195,622.489C583.195,631.135 589.208,637.316 601.234,641.031C605.954,642.455 615.197,644.556 628.962,647.334C633.583,648.341 636.416,649.018 637.459,649.365C639.646,650.129 640.739,651.327 640.739,652.959C640.739,654.764 639.447,656.136 636.863,657.074C634.229,658.011 630.9,658.48 626.875,658.48C620.017,658.48 615.396,657.108 613.011,654.365C612.265,653.497 611.644,652.108 611.147,650.198L580.214,650.198C580.164,658.046 584.786,664.227 594.078,668.741C602.426,672.803 613.284,674.835 626.651,674.835C643.745,674.835 656.367,671.449 664.517,664.678C669.436,660.581 671.896,655.91 671.896,650.667C671.896,641.917 665.262,635.562 651.994,631.604C648.417,630.562 641.037,629.034 629.856,627.02C622.85,625.735 618.676,624.885 617.334,624.468C615.048,623.739 613.905,622.732 613.905,621.447C613.905,619.989 614.949,618.843 617.036,618.009C619.024,617.246 621.508,616.864 624.49,616.864C629.757,616.864 633.434,617.818 635.521,619.728C636.217,620.388 636.838,621.482 637.385,623.01L667.647,623.01ZM729.902,645.198L777.681,645.198L777.681,629.572L729.902,629.572L729.902,620.614L785.359,620.614L785.359,602.123L699.341,602.123L699.341,673.22L786.775,673.22L786.775,654.73L729.902,654.73L729.902,645.198ZM553.738,602.123L523.177,602.123L523.177,645.354C523.177,648.375 522.432,650.789 520.941,652.594C518.307,655.685 513.636,657.23 506.928,657.23C496.095,657.23 490.678,653.271 490.678,645.354L490.678,602.123L460.117,602.123L460.117,644.625C460.117,648.479 460.44,651.57 461.086,653.896C462.875,660.424 467.919,665.702 476.218,669.73C483.274,673.133 493.511,674.835 506.928,674.835C520.345,674.835 530.581,673.133 537.637,669.73C545.936,665.702 550.98,660.424 552.769,653.896C553.415,651.57 553.738,648.479 553.738,644.625L553.738,602.123Z"/>
        </g>
    </g>
</svg>
