<?xml version="1.0" encoding="UTF-8" standalone="no"?>
<!DOCTYPE svg PUBLIC "-//W3C//DTD SVG 1.1//EN" "http://www.w3.org/Graphics/SVG/1.1/DTD/svg11.dtd">
<svg width="100%" height="100%" viewBox="0 0 418 185" version="1.1" xmlns="http://www.w3.org/2000/svg" xmlns:xlink="http://www.w3.org/1999/xlink" xml:space="preserve" xmlns:serif="http://www.serif.com/" style="fill-rule:evenodd;clip-rule:evenodd;stroke-linejoin:round;stroke-miterlimit:2;">
    <g transform="matrix(1,0,0,1,-51.745554,-407.513171)">
        <g transform="matrix(1,0,0,1,-12.153343,242.03445)">
            <path d="M258.481,349.938C243.655,349.112 157.066,344.287 85.585,282.398C65.343,264.872 62.837,262.455 64.209,255.419C65.582,248.382 105.058,215.377 136.421,199.342C278.567,126.665 403.535,187.294 454.447,229.562C478.888,249.855 483.842,255.027 480.154,262.34C477.219,268.161 451.258,289.039 451.189,289.093C360.531,360.059 259.542,349.978 258.481,349.938ZM364.08,269.446C363.419,273.676 359.028,301.8 342.282,318.32C336.503,324.021 345.112,320.457 354.515,317.545C402.861,302.573 438.089,274.668 450.487,263.485C455.04,259.378 457.355,258.63 454.222,255.808C403.126,209.796 354.459,198.93 342.458,194.713C336.706,192.691 343.614,198.537 348.03,204.83C356.829,217.367 360.003,228.261 360.642,230.454C366.895,251.914 364.457,264.701 364.08,269.446ZM278.53,186.055C273.097,185.906 255.222,183.768 233.801,196.984C221.176,204.773 211.889,217.806 208.88,223.712C179.588,281.206 229.283,337.038 281.527,329.693C347.696,320.391 364.744,239.061 318.102,201.981C298.801,186.637 279.848,186.224 278.53,186.055ZM272.573,200.466C304.308,200.466 330.073,226.23 330.073,257.966C330.073,289.701 304.308,315.466 272.573,315.466C240.837,315.466 215.073,289.701 215.073,257.966C215.073,226.23 240.837,200.466 272.573,200.466ZM184.084,284.621C181.534,274.664 181.179,274.754 180.373,264.507C177.88,232.836 193.838,206.207 203.741,196.644C208.327,192.217 198.971,195.908 197.453,196.348C188.174,199.037 136.466,214.019 91.805,254.839C88.853,257.537 88.876,258.501 91.802,261.163C123.206,289.739 161.044,306.316 167.621,309.198C178.818,314.103 203.995,322.078 204.537,321.554C207.106,319.068 194.435,316.659 184.084,284.621Z" style="fill:rgb(1,1,1);"/>
        </g>
    </g>
</svg>
