<?xml version="1.0" encoding="UTF-8" standalone="no"?>
<!DOCTYPE svg PUBLIC "-//W3C//DTD SVG 1.1//EN" "http://www.w3.org/Graphics/SVG/1.1/DTD/svg11.dtd">
<svg width="100%" height="100%" viewBox="0 0 418 162" version="1.1" xmlns="http://www.w3.org/2000/svg" xmlns:xlink="http://www.w3.org/1999/xlink" xml:space="preserve" xmlns:serif="http://www.serif.com/" style="fill-rule:evenodd;clip-rule:evenodd;stroke-linejoin:round;stroke-miterlimit:2;">
    <g transform="matrix(1,0,0,1,-530.745554,-430.886232)">
        <g transform="matrix(1,0,0,1,-12.157065,253.074454)">
            <path d="M573.405,220.109C573.562,219.553 573.37,219.276 573.036,218.943C572.91,218.818 545.032,197.074 543.294,190.562C540.567,180.342 552.716,173.61 560.189,180.826C567.536,187.92 651.932,278.216 794.521,256.625C828.151,251.533 888.774,233.817 940.33,183.32C941.673,182.005 944.908,177.289 951.455,177.867C953.031,178.006 969.041,183.988 954.06,198.034C934.978,215.925 934.09,214.883 929.998,218.954C929.743,219.209 929.618,219.501 929.636,219.874L958.079,256.312C961.823,261.107 960.968,268.04 956.173,271.783C951.378,275.526 944.445,274.672 940.702,269.877L911.551,232.533C907.961,233.692 899.214,241.733 869.385,255.249C867.547,256.081 866.573,256.685 866.242,257.537L878.841,289.837C880.429,293.641 881.63,296.514 881.965,297.315C883.466,300.908 883.532,300.79 884.786,304.426C884.791,304.653 884.792,304.876 884.79,305.096C886.851,310.71 884.044,316.976 878.447,319.159C872.779,321.37 866.383,318.564 864.172,312.896L845.449,264.895C841.874,265.172 829.485,270.789 802.521,275.616C800.605,275.958 799.168,275.939 798.248,276.273L804.027,327.145C804.714,333.189 800.364,338.654 794.319,339.341C788.275,340.028 782.81,335.678 782.123,329.633L776.449,279.687C776.428,279.668 776.407,279.648 776.386,279.627C775.12,278.429 758.394,281.318 732.502,279.469C731.93,279.429 729.326,278.679 727.552,279.377L721.192,328.599C720.412,334.633 714.881,338.898 708.848,338.118C702.814,337.339 698.549,331.808 699.329,325.774L705.637,276.958C705.552,276.868 705.457,276.781 705.353,276.69C704.777,276.186 684.965,273.407 663.489,266.532C659.032,265.105 658.566,264.329 657.243,264.768L638.61,311.054C636.339,316.697 629.913,319.434 624.269,317.162C618.626,314.891 615.888,308.464 618.16,302.821L636.621,256.964C633.837,254.507 618.631,249.861 594.223,233.928C593.138,233.22 592.282,232.816 591.537,232.704L562.623,269.863C558.887,274.664 551.956,275.529 547.155,271.793C542.353,268.057 541.488,261.126 545.224,256.325L573.405,220.109Z" style="fill:rgb(5,5,5);"/>
        </g>
    </g>
</svg>
